<svg width="100%" viewBox="0 0 440 296" xmlns="http://www.w3.org/2000/svg">
<defs>
  <linearGradient id="cardbg-card-lsreborn" x1="0" y1="0" x2="1" y2="1">
    <stop offset="0%" stop-color="#12161d"/>
    <stop offset="100%" stop-color="#0b0e13"/>
  </linearGradient>
  <linearGradient id="border-card-lsreborn" x1="0" y1="0" x2="1" y2="1">
    <stop offset="0%" stop-color="#a06fd6" stop-opacity="0.95"/>
    <stop offset="45%" stop-color="#2a323d" stop-opacity="0.55"/>
    <stop offset="100%" stop-color="#a06fd6" stop-opacity="0.4"/>
  </linearGradient>
  <filter id="shadow-card-lsreborn" x="-30%" y="-30%" width="160%" height="160%">
    <feDropShadow dx="0" dy="8" stdDeviation="10" flood-color="#000000" flood-opacity="0.55"/>
  </filter>
  <linearGradient id="shine-card-lsreborn" x1="0" y1="0" x2="1" y2="0">
    <stop offset="0%" stop-color="#a06fd6" stop-opacity="0"/>
    <stop offset="50%" stop-color="#a06fd6" stop-opacity="0.95"/>
    <stop offset="100%" stop-color="#a06fd6" stop-opacity="0"/>
  </linearGradient>
  <pattern id="dots-card-lsreborn" width="16" height="16" patternUnits="userSpaceOnUse">
    <circle cx="1" cy="1" r="0.7" fill="#a06fd6" opacity="0.35"/>
  </pattern>
  <clipPath id="clip-card-lsreborn"><rect x="1" y="1" width="438" height="294" rx="16"/></clipPath>
</defs>
<rect x="6" y="10" width="428" height="282" rx="16" fill="#000" opacity="0.001" filter="url(#shadow-card-lsreborn)"/>
<rect x="0.5" y="0.5" width="439" height="295" rx="17" fill="url(#border-card-lsreborn)"/>
<rect x="2" y="2" width="436" height="292" rx="15" fill="url(#cardbg-card-lsreborn)"/>
<g clip-path="url(#clip-card-lsreborn)">
<rect x="0" y="0" width="440" height="296" fill="url(#dots-card-lsreborn)" opacity="0.5"/>
<rect x="-180" y="0" width="180" height="3" fill="url(#shine-card-lsreborn)">
<animate attributeName="x" begin="0s" dur="5s" repeatCount="indefinite" values="-180;440;-180"/>
</rect>
<circle cx="24" cy="24" r="24" fill="#a06fd6" opacity="0.1" transform="translate(20,20)"/>
<g transform="translate(24,24)">
  <rect x="-16" y="-6" width="32" height="16" rx="8" fill="none" stroke="#a06fd6" stroke-width="2.2"/>
  <line x1="-7" y1="-2" x2="-7" y2="6" stroke="#a06fd6" stroke-width="2.2" stroke-linecap="round"/>
  <line x1="-11" y1="2" x2="-3" y2="2" stroke="#a06fd6" stroke-width="2.2" stroke-linecap="round"/>
  <circle cx="8" cy="0" r="2" fill="#a06fd6"/>
  <circle cx="13" cy="4" r="2" fill="#a06fd6"/>
</g>
<text x="80" y="38" font-family="Arial, Helvetica, sans-serif" font-weight="800" font-size="22" fill="#eef1f5">LS-Reborn Portal</text>
<rect x="80" y="46" width="68.0" height="18" rx="9" fill="#42e070" opacity="0.15"/>
<circle cx="93" cy="55" r="3" fill="#42e070"/>
<text x="101" y="59" font-family="Consolas, monospace" font-size="10.5" fill="#42e070" font-weight="700">LIVE</text>
<text x="24" y="90" font-family="Arial, Helvetica, sans-serif" font-size="13.5" fill="#a7afbb">Full-stack community platform automating player</text>
<text x="24" y="109" font-family="Arial, Helvetica, sans-serif" font-size="13.5" fill="#a7afbb">onboarding and access control.</text>
<rect x="24" y="140" width="79.39999999999999" height="26" rx="6" fill="#161b22" stroke="#a06fd6" stroke-width="1" stroke-opacity="0.4"/>
<text x="34" y="157" font-family="Consolas, monospace" font-size="11.5" fill="#a06fd6" font-weight="700">3</text>
<text x="48.6" y="157" font-family="Consolas, monospace" font-size="10" fill="#8b93a1">ROLES</text>
<rect x="111.39999999999999" y="140" width="112.19999999999999" height="26" rx="6" fill="#161b22" stroke="#a06fd6" stroke-width="1" stroke-opacity="0.4"/>
<text x="121.39999999999999" y="157" font-family="Consolas, monospace" font-size="11.5" fill="#a06fd6" font-weight="700">OAUTH2</text>
<text x="179.0" y="157" font-family="Consolas, monospace" font-size="10" fill="#8b93a1">AUTH</text>
<rect x="231.59999999999997" y="140" width="79.39999999999999" height="26" rx="6" fill="#161b22" stroke="#a06fd6" stroke-width="1" stroke-opacity="0.4"/>
<text x="241.59999999999997" y="157" font-family="Consolas, monospace" font-size="11.5" fill="#a06fd6" font-weight="700">4</text>
<text x="256.19999999999993" y="157" font-family="Consolas, monospace" font-size="10" fill="#8b93a1">FLOWS</text>
<line x1="24" y1="182" x2="416" y2="182" stroke="#242a33" stroke-width="1"/>
<circle cx="28" cy="200" r="2.5" fill="#a06fd6"/>
<text x="38" y="204" font-family="Arial, Helvetica, sans-serif" font-size="12.5" fill="#c3c9d3">Discord OAuth2 + JWT-based RBAC, 3 roles</text>
<circle cx="28" cy="221" r="2.5" fill="#a06fd6"/>
<text x="38" y="225" font-family="Arial, Helvetica, sans-serif" font-size="12.5" fill="#c3c9d3">AI applicant scoring + duplicate-ticket detection</text>
<rect x="24" y="240" width="54.0" height="22" rx="11" fill="#1a1f27" stroke="#2a323d" stroke-width="1"/>
<text x="51.0" y="255" text-anchor="middle" font-family="Consolas, monospace" font-size="10.5" fill="#9aa3b0">React</text>
<rect x="85.0" y="240" width="68.4" height="22" rx="11" fill="#1a1f27" stroke="#2a323d" stroke-width="1"/>
<text x="119.2" y="255" text-anchor="middle" font-family="Consolas, monospace" font-size="10.5" fill="#9aa3b0">Node.js</text>
<rect x="160.4" y="240" width="54.0" height="22" rx="11" fill="#1a1f27" stroke="#2a323d" stroke-width="1"/>
<text x="187.4" y="255" text-anchor="middle" font-family="Consolas, monospace" font-size="10.5" fill="#9aa3b0">MySQL</text>
<rect x="221.4" y="240" width="97.2" height="22" rx="11" fill="#1a1f27" stroke="#2a323d" stroke-width="1"/>
<text x="270.0" y="255" text-anchor="middle" font-family="Consolas, monospace" font-size="10.5" fill="#9aa3b0">Discord API</text>
<rect x="325.6" y="240" width="61.2" height="22" rx="11" fill="#1a1f27" stroke="#2a323d" stroke-width="1"/>
<text x="356.20000000000005" y="255" text-anchor="middle" font-family="Consolas, monospace" font-size="10.5" fill="#9aa3b0">Python</text>
<line x1="24" y1="272" x2="416" y2="272" stroke="#242a33" stroke-width="1"/>
<text x="416" y="288" text-anchor="end" font-family="Consolas, monospace" font-size="11" fill="#a06fd6" font-weight="700">VIEW LIVE →</text>
</g>
</svg>